<svg width="648" height="648" viewBox="0 0 648 648" fill="none" xmlns="http://www.w3.org/2000/svg">
<g clip-path="url(#clip0)">
<path d="M578.799 271.723C581.203 256.508 582.703 239.825 583.081 221.118C582.936 140.904 544.538 112.521 537.15 99.2146C548.031 38.4374 535.348 10.7919 529.449 1.32806C507.691 -6.39466 453.751 21.2604 424.28 40.7283C376.228 26.6625 274.68 28.0353 236.599 44.3689C166.336 -5.94245 129.174 1.72882 129.174 1.72882C129.174 1.72882 105.149 44.8103 122.823 107.836C99.7048 137.296 82.4736 158.125 82.4736 213.372C82.4736 226.604 83.2954 239.108 84.6899 251.137C104.599 355.819 187.547 400.98 269.025 408.768C256.764 418.084 242.044 435.715 240.008 456.144C224.602 466.105 193.612 469.397 169.514 461.821C135.749 451.152 122.823 384.288 72.2583 393.826C61.3173 395.873 63.4917 403.089 72.9664 409.242C88.3712 419.233 102.88 431.654 114.063 458.233C122.652 478.639 140.718 515.073 197.834 515.073C220.508 515.073 236.389 512.393 236.389 512.393C236.389 512.393 236.821 564.392 236.821 584.672C236.821 608.011 205.323 614.564 205.323 625.761C205.323 630.214 215.749 630.636 224.127 630.636C240.684 630.636 275.133 616.845 275.133 592.587C275.133 573.311 275.44 508.535 275.44 497.19C275.44 472.404 288.723 464.512 288.723 464.512C288.723 464.512 290.349 596.826 285.527 614.565C279.871 635.426 269.626 632.462 269.626 641.746C269.626 655.601 311.041 645.134 324.778 614.807C335.405 591.121 330.646 461.367 330.646 461.367L341.725 461.126C341.725 461.126 341.852 520.552 341.47 547.701C341.071 575.82 338.169 611.368 354.871 628.146C365.834 639.181 399.419 658.543 399.419 640.849C399.419 630.594 375.9 622.12 375.9 594.338V466.355C390.188 466.355 393.141 508.424 393.141 508.424L398.291 586.581C398.291 586.581 394.871 615.101 429.101 627.003C441.184 631.236 467.035 632.387 468.246 625.283C469.461 618.161 437.12 607.63 436.813 585.556C436.646 572.112 437.415 564.243 437.415 505.765C437.415 447.319 429.564 425.698 402.204 408.468C481.545 400.326 563.953 364.893 578.799 271.723Z" fill="url(#paint0_linear)"/>
</g>
<defs>
<linearGradient id="paint0_linear" x1="324" y1="0" x2="324" y2="648" gradientUnits="userSpaceOnUse">
<stop offset="0.614583" stop-color="white" stop-opacity="0.1"/>
<stop offset="1" stop-opacity="0"/>
</linearGradient>
<clipPath id="clip0">
<rect width="648" height="648" fill="white"/>
</clipPath>
</defs>
</svg>
