<svg width="153" height="30" viewBox="0 0 153 30" fill="none" xmlns="http://www.w3.org/2000/svg">
<path d="M9.125 5.25C11.3583 5.25 13.2833 5.95833 14.9 7.375L12.825 9.55C12.2083 9.08333 11.6333 8.75 11.1 8.55C10.5833 8.33333 9.98333 8.225 9.3 8.225C8.01667 8.225 6.99167 8.73333 6.225 9.75C5.45833 10.75 5.075 12.275 5.075 14.325C5.075 16.5417 5.36667 18.1167 5.95 19.05C6.53333 19.9667 7.44167 20.425 8.675 20.425C9.54167 20.425 10.325 20.2333 11.025 19.85V15.925H8.775L8.375 13.025H15V21.6C14.1 22.1833 13.1083 22.6333 12.025 22.95C10.9417 23.2667 9.85833 23.425 8.775 23.425C6.14167 23.425 4.15833 22.6583 2.825 21.125C1.49167 19.575 0.825 17.3083 0.825 14.325C0.825 12.425 1.18333 10.7917 1.9 9.425C2.63333 8.05833 3.625 7.025 4.875 6.325C6.14167 5.60833 7.55833 5.25 9.125 5.25ZM21.6133 9.725V23H17.6633V9.725H21.6133ZM19.6133 2.725C20.2966 2.725 20.8549 2.94167 21.2883 3.375C21.7383 3.79167 21.9633 4.325 21.9633 4.975C21.9633 5.625 21.7383 6.16667 21.2883 6.6C20.8549 7.01667 20.2966 7.225 19.6133 7.225C18.9299 7.225 18.3716 7.01667 17.9383 6.6C17.5049 6.16667 17.2883 5.625 17.2883 4.975C17.2883 4.325 17.5049 3.79167 17.9383 3.375C18.3716 2.94167 18.9299 2.725 19.6133 2.725ZM33.0439 22.375C32.5606 22.7083 31.9939 22.9667 31.3439 23.15C30.7106 23.3333 30.0773 23.425 29.4439 23.425C26.5439 23.4083 25.0939 21.8083 25.0939 18.625V12.475H23.2189V9.725H25.0939V6.85L29.0439 6.4V9.725H32.0939L31.6689 12.475H29.0439V18.575C29.0439 19.1917 29.1439 19.6333 29.3439 19.9C29.5439 20.1667 29.8606 20.3 30.2939 20.3C30.7439 20.3 31.2189 20.1583 31.7189 19.875L33.0439 22.375ZM43.7375 23V15.575H38.5375V23H34.4375V5.675H38.5375V12.375H43.7375V5.675H47.8375V23H43.7375ZM62.2129 23H58.7879L58.6129 21.325C57.6462 22.725 56.3046 23.425 54.5879 23.425C53.3712 23.425 52.4462 23.0583 51.8129 22.325C51.1962 21.5917 50.8879 20.5667 50.8879 19.25V9.725H54.8379V18.75C54.8379 19.4 54.9379 19.8583 55.1379 20.125C55.3546 20.375 55.6796 20.5 56.1129 20.5C56.9462 20.5 57.6629 19.9833 58.2629 18.95V9.725H62.2129V23ZM72.8445 9.3C74.4279 9.3 75.6445 9.925 76.4945 11.175C77.3445 12.4083 77.7695 14.1417 77.7695 16.375C77.7695 17.7417 77.5529 18.9583 77.1195 20.025C76.7029 21.0917 76.0945 21.925 75.2945 22.525C74.5112 23.125 73.5779 23.425 72.4945 23.425C71.7779 23.425 71.1195 23.275 70.5195 22.975C69.9362 22.675 69.4362 22.2583 69.0195 21.725L68.8195 23H65.3195V4.45L69.2695 4.025V11.075C69.6695 10.525 70.1779 10.0917 70.7945 9.775C71.4279 9.45833 72.1112 9.3 72.8445 9.3ZM71.3445 20.55C72.8945 20.55 73.6695 19.1583 73.6695 16.375C73.6695 14.7917 73.4862 13.7 73.1195 13.1C72.7529 12.5 72.2195 12.2 71.5195 12.2C70.6362 12.2 69.8862 12.7167 69.2695 13.75V19.275C69.5195 19.675 69.8195 19.9917 70.1695 20.225C70.5362 20.4417 70.9279 20.55 71.3445 20.55Z" fill="white"/>
<path d="M88.8145 19.6431C88.8145 18.9188 88.5215 18.3369 87.9355 17.8975C87.3577 17.458 86.4829 17.1162 85.311 16.8721C84.1392 16.6198 83.2277 16.335 82.5767 16.0176C81.9338 15.6921 81.4536 15.2974 81.1362 14.8335C80.827 14.3696 80.6724 13.8081 80.6724 13.1489C80.6724 12.1073 81.1077 11.2487 81.9785 10.5732C82.8493 9.88965 83.9642 9.54785 85.3232 9.54785C86.7962 9.54785 87.9762 9.91406 88.8633 10.6465C89.7585 11.3708 90.2061 12.3188 90.2061 13.4907H88.7412C88.7412 12.7176 88.4157 12.0747 87.7646 11.562C87.1217 11.0493 86.3079 10.793 85.3232 10.793C84.363 10.793 83.5898 11.0086 83.0039 11.4399C82.4261 11.8631 82.1372 12.4165 82.1372 13.1001C82.1372 13.7593 82.3773 14.272 82.8574 14.6382C83.3457 14.9963 84.2287 15.3258 85.5063 15.627C86.7922 15.9281 87.7524 16.2495 88.3872 16.5913C89.0301 16.9331 89.5062 17.3441 89.8154 17.8242C90.1247 18.3044 90.2793 18.8862 90.2793 19.5698C90.2793 20.6847 89.8276 21.5758 88.9243 22.2432C88.0291 22.9105 86.8573 23.2441 85.4087 23.2441C83.8706 23.2441 82.6214 22.8739 81.6611 22.1333C80.709 21.3846 80.2329 20.4406 80.2329 19.3013H81.6978C81.7547 20.1558 82.1128 20.8231 82.772 21.3032C83.4393 21.7752 84.3182 22.0112 85.4087 22.0112C86.4259 22.0112 87.2479 21.7874 87.8745 21.3398C88.5011 20.8923 88.8145 20.3267 88.8145 19.6431ZM98.6899 23.2441C97.5669 23.2441 96.5496 22.9674 95.6382 22.4141C94.7349 21.8607 94.0309 21.0916 93.5264 20.1069C93.0218 19.1141 92.7695 18.0033 92.7695 16.7744V16.2495C92.7695 14.98 93.0137 13.8366 93.502 12.8193C93.9984 11.8021 94.686 11.0046 95.5649 10.4268C96.4438 9.84082 97.396 9.54785 98.4214 9.54785C100.025 9.54785 101.294 10.0972 102.23 11.1958C103.174 12.2863 103.646 13.7796 103.646 15.6758V16.4937H94.2222V16.7744C94.2222 18.2718 94.6494 19.521 95.5039 20.522C96.3665 21.5148 97.4489 22.0112 98.751 22.0112C99.5322 22.0112 100.22 21.8688 100.814 21.584C101.416 21.2992 101.961 20.8434 102.45 20.2168L103.365 20.9126C102.291 22.467 100.733 23.2441 98.6899 23.2441ZM98.4214 10.793C97.3228 10.793 96.395 11.1958 95.6382 12.0015C94.8895 12.8071 94.4338 13.8895 94.271 15.2485H102.193V15.0898C102.153 13.8203 101.791 12.7868 101.107 11.9893C100.423 11.1917 99.5282 10.793 98.4214 10.793ZM114.828 23C114.681 22.585 114.588 21.9705 114.547 21.1567C114.034 21.8241 113.379 22.3408 112.582 22.707C111.792 23.0651 110.954 23.2441 110.067 23.2441C108.797 23.2441 107.768 22.8901 106.979 22.1821C106.197 21.4741 105.807 20.5789 105.807 19.4966C105.807 18.2108 106.34 17.1935 107.406 16.4448C108.48 15.6961 109.973 15.3218 111.886 15.3218H114.535V13.8203C114.535 12.8763 114.242 12.1357 113.656 11.5986C113.078 11.0534 112.232 10.7808 111.117 10.7808C110.099 10.7808 109.257 11.0412 108.59 11.562C107.923 12.0828 107.589 12.7095 107.589 13.4419L106.124 13.4297C106.124 12.3799 106.612 11.4725 107.589 10.7075C108.565 9.93441 109.766 9.54785 111.19 9.54785C112.663 9.54785 113.823 9.91813 114.669 10.6587C115.523 11.3911 115.963 12.4165 115.987 13.7349V19.9849C115.987 21.2625 116.122 22.2188 116.39 22.8535V23H114.828ZM110.238 21.9502C111.214 21.9502 112.085 21.7142 112.85 21.2422C113.623 20.7702 114.185 20.1395 114.535 19.3501V16.4448H111.922C110.466 16.4611 109.326 16.7297 108.504 17.2505C107.682 17.7632 107.271 18.4712 107.271 19.3745C107.271 20.1151 107.544 20.7295 108.089 21.2178C108.643 21.7061 109.359 21.9502 110.238 21.9502ZM125.997 11.0371C125.688 10.9801 125.358 10.9517 125.008 10.9517C124.097 10.9517 123.324 11.208 122.689 11.7207C122.062 12.2253 121.615 12.9618 121.346 13.9302V23H119.894V9.79199H121.322L121.346 11.8916C122.119 10.3291 123.36 9.54785 125.069 9.54785C125.476 9.54785 125.798 9.60075 126.034 9.70654L125.997 11.0371ZM132.955 22.0112C133.972 22.0112 134.823 21.7264 135.506 21.1567C136.198 20.5789 136.572 19.8343 136.629 18.9229H138.033C137.993 19.7285 137.74 20.465 137.276 21.1323C136.812 21.7915 136.194 22.3083 135.421 22.6826C134.656 23.057 133.834 23.2441 132.955 23.2441C131.222 23.2441 129.846 22.6419 128.829 21.4375C127.82 20.2331 127.315 18.6136 127.315 16.5791V16.1396C127.315 14.8376 127.543 13.686 127.999 12.6851C128.455 11.6841 129.106 10.911 129.952 10.3657C130.807 9.82048 131.804 9.54785 132.943 9.54785C134.391 9.54785 135.584 9.97917 136.52 10.8418C137.464 11.7044 137.968 12.8397 138.033 14.2476H136.629C136.564 13.214 136.19 12.3799 135.506 11.7451C134.831 11.1104 133.976 10.793 132.943 10.793C131.625 10.793 130.599 11.269 129.867 12.2212C129.142 13.1733 128.78 14.508 128.78 16.2251V16.6523C128.78 18.3369 129.142 19.6512 129.867 20.5952C130.599 21.5392 131.629 22.0112 132.955 22.0112ZM142.416 12.0259C142.896 11.2365 143.51 10.6261 144.259 10.1948C145.007 9.76351 145.825 9.54785 146.712 9.54785C148.128 9.54785 149.182 9.94661 149.874 10.7441C150.566 11.5417 150.916 12.738 150.924 14.333V23H149.471V14.3208C149.463 13.1408 149.211 12.2619 148.714 11.6841C148.226 11.1063 147.441 10.8174 146.358 10.8174C145.455 10.8174 144.653 11.1022 143.954 11.6719C143.262 12.2334 142.749 12.9943 142.416 13.9546V23H140.963V4.25H142.416V12.0259Z" fill="white"/>
</svg>
